<!DOCTYPE svg PUBLIC "-//W3C//DTD SVG 1.1//EN" "http://www.w3.org/Graphics/SVG/1.1/DTD/svg11.dtd">
<!-- Uploaded to: SVG Repo, www.svgrepo.com, Transformed by: SVG Repo Mixer Tools -->
<svg height="800px" width="800px" version="1.1" id="Layer_1" xmlns="http://www.w3.org/2000/svg" xmlns:xlink="http://www.w3.org/1999/xlink" viewBox="-50.8 -50.8 609.60 609.60" xml:space="preserve" fill="#000000" transform="matrix(1, 0, 0, 1, 0, 0)rotate(0)">
<g id="SVGRepo_bgCarrier" stroke-width="0">
<path transform="translate(-50.8, -50.8), scale(19.05)" d="M16,25.3675460126251C18.028007029635393,25.049839793865758,19.602446213115126,28.03314958095811,21.624463354376086,27.67931849959896C23.50679297084379,27.349931220886884,24.588993204812947,25.282567876585,25.63280901865172,23.681908852561172C26.627444537721395,22.156666278051365,27.013594691322485,20.378093631677856,27.52529708521283,18.630573850107645C28.06288333032032,16.79465787855425,29.281916797169124,14.92635033516474,28.733201102019734,13.093729940366531C28.18056857120161,11.248027957064394,26.18904867590415,10.270032706127258,24.6679589798659,9.087533377632674C23.382536305495403,8.088242242314507,21.682316048937896,7.7883021115424595,20.486838136070077,6.682984607493747C18.70639061150239,5.036814659256103,18.24103548579944,1.9993760030511378,16.000000000000004,1.0732934810221195C13.88246830911751,0.1982475028593541,11.051871259144093,0.5963101362473393,9.283673166223455,2.0534036232900643C7.444746643256956,3.5687812670577617,7.747460440066056,6.474913714107917,6.794671634612451,8.658995592679068C6.08206385418756,10.292509474083083,4.271308146689002,11.562908955946531,4.358696652591263,13.342948477557744C4.449406380934074,15.190638854887354,6.5645706814634615,16.27941163806405,7.253079560074973,17.996427511422706C7.812765812057995,19.392183192443774,7.70563400658905,20.91312886705234,7.9866589139178,22.390426272188574C8.449928940459143,24.825753498491345,7.1338255427273785,28.72202432684228,9.45763252653845,29.5853660428818C11.920782449368893,30.500476504315863,13.404014309478395,25.774231386806104,16,25.3675460126251" fill="#7eb7ec" strokewidth="0"/>
</g>
<g id="SVGRepo_tracerCarrier" stroke-linecap="round" stroke-linejoin="round"/>
<g id="SVGRepo_iconCarrier"> <path style="fill:#0fb366;" d="M504,164v-24c0-25.6-18.4-44-44-44H272.4H272l0,0h-0.4l0,0l0,0h-0.4c-0.8,0-1.2-0.4-1.6-1.2L226.8,52 H55.6C28.8,52,7.2,71.6,7.2,96v68H504z"/> <path style="fill:#87e8d5;" d="M460,130l-403.6,2c-25.6,0-51.6,19.6-51.6,44.8c0,0.4,1.6,1.2,1.6,1.6c-0.4,0.4,0.4,2-0.4,2 c0,0,2.4-0.8,2-0.8v224c0,25.2,23.2,48,48.4,48H460c24,0,44-21.6,44-48V176.8V162C498,143.6,480.8,130,460,130z"/> <path style="fill:#a1ff2e;" d="M377.6,358L296,226.4l-17.6-27.6c-4.8-8-11.6-12.4-18.4-12.4c-6.8,0-13.6,4.4-18.8,12.4l-98.8,158.8 c-4.8,8-6,15.6-2.8,21.2s10,8.8,19.2,8.8h202c9.2,0,16.4-3.2,19.2-8.8C383.6,373.6,382.8,365.6,377.6,358z"/> <g> <path style="fill:#F4EFEF;" d="M259.2,239.2c-5.6,0-10,4.8-10,10.4v57.2c0,5.6,4.4,10.4,10,10.4s10-4.8,10-10.4v-57.2 C269.2,244,264.8,239.2,259.2,239.2z"/> <path style="fill:#F4EFEF;" d="M260.4,342.4c-5.6,0-10,4.4-10,10s4.4,10,10,10s10-4.4,10-10S266,342.4,260.4,342.4z"/> </g> <path d="M460,460H56.4C27.6,460,0,432.8,0,404V96c0-29.6,29.2-48,56.4-48h172c1.2,0,2,0.4,2.8,1.2L274,92h186 c28.8,0,48,19.2,48,48.4V404C508,430.8,489.6,460,460,460z M56.4,56C33.2,56,8,71.2,8,96v308c0,24.4,24,48,48.4,48H460 c24.8,0,40-24.8,40-48V140.4c0-24-16-40.4-40-40.4H272.8c-0.8,0-1.6,0-2.4-0.4c-0.8-0.4-1.2-0.8-1.6-1.2L226.4,56H56.4z"/> <path d="M4,184c-2.4,0-4-1.6-4-4c0-28.8,23.6-52,52.4-52H400c2.4,0,4,1.6,4,4s-1.6,4-4,4H52.4C28,136,8,155.6,8,180 C8,182.4,6.4,184,4,184z"/> <path d="M504,178.4c-2.4,0-4-1.6-4-4c0-24-16-40.4-40-40.4c-2.4,0-4-1.6-4-4s1.6-4,4-4c28.4,0,48,20,48,48.4 C508,176.8,506.4,178.4,504,178.4z"/> <path d="M361.2,396h-202c-11.2,0-20-4.4-24.4-12c-4.4-8-3.2-18.4,2.8-28.4l98.8-159.2c6-10,14.8-15.6,24-15.6l0,0 c8.8,0,17.2,5.2,23.2,14.8l17.6,27.6l0,0L308,234l74.8,121.6c6.4,10,7.2,20.4,2.8,28C381.6,391.6,372.4,396,361.2,396z M260.4,188.8 L260.4,188.8c-6.4,0-12.4,4-17.2,11.6l-98.8,159.2c-4.8,7.6-5.6,14.8-2.8,20s9.2,8,17.6,8h202c8.4,0,14.8-2.8,17.6-8s2-12.8-2.8-20 l-81.6-132.4l-17.6-27.6C272.4,192.8,266.4,188.8,260.4,188.8z"/> <path d="M260.4,322.4c-8.8,0-16-7.2-16-16.4v-57.2c0-9.2,7.2-16.4,16-16.4s16,7.2,16,16.4V306C276.4,315.2,269.2,322.4,260.4,322.4z M260.4,240.8c-4.4,0-8,4-8,8.4v57.2c0,4.4,3.6,8.4,8,8.4s8-4,8-8.4v-57.2C268.4,244.4,264.8,240.8,260.4,240.8z"/> <path d="M260.4,368c-8.8,0-16-7.2-16-16s7.2-16,16-16s16,7.2,16,16S269.2,368,260.4,368z M260.4,344.4c-4.4,0-8,3.6-8,8s3.6,8,8,8 s8-3.6,8-8S264.8,344.4,260.4,344.4z"/> </g>
</svg>